<?xml version="1.0" encoding="UTF-8" standalone="no"?>
<!DOCTYPE svg PUBLIC "-//W3C//DTD SVG 1.1//EN" "http://www.w3.org/Graphics/SVG/1.1/DTD/svg11.dtd">
<svg width="48" height="48" viewBox="0 0 48 48" version="1.1" xmlns="http://www.w3.org/2000/svg" xmlns:xlink="http://www.w3.org/1999/xlink" xml:space="preserve" xmlns:serif="http://www.serif.com/" style="fill-rule:evenodd;clip-rule:evenodd;stroke-linecap:round;stroke-linejoin:round;stroke-miterlimit:1;">
    <g transform="matrix(0.845763,0,0,0.845763,0.698327,6.86312)">
        <path d="M23.365,34.696L23.365,44.497L4.528,44.497L4.528,25.643L15.11,25.643" style="fill:none;stroke:rgb(14,21,31);stroke-width:3.55px;"/>
    </g>
    <g transform="matrix(1.1336,0,0,1.1336,3.02735,-17.8896)">
        <g transform="matrix(0.399425,0,0,0.399425,14.1619,15.8141)">
            <circle cx="32" cy="32" r="30" style="fill:rgb(15,22,33);"/>
        </g>
        <g transform="matrix(0.399425,0,0,0.399425,14.1619,15.8141)">
            <path d="M45.225,43C40.236,43 36.785,37.5 32.001,37.5C27.217,37.5 23.468,43 18.776,43C12.62,43 8.074,37.656 8,28.5C7.954,22.815 9.805,21 17.8,21C25.795,21 28.128,24 32,24C35.872,24 38.214,21 46.2,21C54.186,21 56.042,22.815 56,28.5C55.926,37.656 51.381,43 45.225,43ZM21.714,28C16.857,28.193 14.857,30.846 14.857,31.5C14.857,32.154 18.077,34 21.224,34C24.371,34 28.081,32.943 28.081,32C28.082,30.948 26.3,27.818 21.714,28ZM42.286,28C37.703,27.818 35.919,30.948 35.919,32C35.919,32.943 39.628,34 42.776,34C45.924,34 49.143,32.154 49.143,31.5C49.143,30.846 47.143,28.193 42.286,28Z" style="fill:white;fill-rule:nonzero;"/>
        </g>
    </g>
    <g transform="matrix(0.6319,-0.6319,3.14567,3.14567,-141.055,-84.4293)">
        <path d="M25.634,44.041L25.634,43.363L36.274,43.363L36.274,42.734L41.097,43.702L36.274,44.671L36.274,44.041L25.634,44.041Z" style="fill:rgb(14,21,31);stroke:rgb(14,21,31);stroke-width:0.31px;"/>
    </g>
</svg>
